<svg xmlns="http://www.w3.org/2000/svg" version="1.1" xmlns:xlink="http://www.w3.org/1999/xlink" xmlns:svgjs="http://svgjs.com/svgjs" height="169.4117073059082" width="254.6300048828125"><defs id="SvgjsDefs1360"></defs><g id="SvgjsG1361" rel="mainfill" name="main_text" xmlns:name="main_text" transform="translate(-3.5299999713897705,-72.56828842163085)" fill="#ffffff"><path d="M3.53 240.90L3.68 184.21L5.69 184.42L7.97 182.73L10.85 190.34L14.09 181.83L15.71 182.05L14.92 240.07L12.40 238.67L10.27 241.41L8.04 235.57L5.62 241.48L3.53 240.90ZM21.01 218.16Q21.01 216.03 21.64 212.48Q22.27 208.93 23.64 205.27Q25.01 201.62 27.27 198.62Q29.52 195.63 32.76 194.59Q36.37 193.47 39.65 193.07Q40.73 192.93 41.92 192.97Q44.22 192.97 46.71 193.51Q46.85 193.72 46.93 194.05Q47.00 194.37 47.14 194.59L42.06 196.39L45.59 198.37L44.04 199.71L44.65 201.54Q43.68 201.62 42.49 201.76Q41.30 201.90 40.13 202.14Q38.96 202.37 37.88 202.66Q36.80 202.95 36.00 203.38Q34.53 204.10 33.50 206.10Q32.47 208.10 31.84 210.46Q31.21 212.83 30.91 215.15Q30.60 217.47 30.60 218.88Q30.60 220.14 30.80 221.87Q31.00 223.60 31.43 225.46Q31.86 227.31 32.64 228.97Q33.41 230.63 34.67 231.67Q35.32 232.25 36.65 232.58Q37.99 232.90 39.61 233.06Q41.23 233.22 42.94 233.30Q44.65 233.37 46.13 233.37Q45.99 233.51 45.83 233.76Q45.66 234.02 45.45 234.38L47.00 236.07L43.32 238.16L47.36 239.64Q47.21 240.22 47.07 240.50Q42.64 241.48 38.17 241.73Q37.52 241.77 36.87 241.77Q33.19 241.77 30.09 240.50Q27.28 239.39 25.52 236.85Q23.75 234.31 22.76 231.13Q21.77 227.96 21.39 224.54Q21.01 221.11 21.01 218.16ZM52.01 197.80L53.02 195.42L52.51 194.44L73.63 193.04L74.28 195.92L69.70 199.09L74.06 200.43L73.49 202.05L62.71 203.02L62.46 214.37L73.24 214.01L72.01 217.87L74.14 218.74L73.78 220.72L62.60 221.84L63.07 233.87L74.21 233.44L73.49 237.26L75.47 238.16L74.64 240.97L57.23 241.98L57.52 238.23L53.02 238.52L53.48 204.00L52.58 202.52L55.76 199.78L52.01 197.80ZM79.11 213.73Q79.22 210.19 79.54 207.09Q79.83 203.56 80.93 199.81Q82.03 196.07 83.89 192.82Q85.74 189.58 88.35 187.04Q90.97 184.50 94.36 183.24Q97.17 182.23 100.48 182.23Q100.81 182.23 101.17 182.23Q104.84 182.33 109.35 184.28L109.64 185.69L105.06 188.17L109.06 192.03L106.54 193.29L107.94 195.71Q106.39 195.27 104.74 195.06Q103.47 194.88 102.25 194.88L101.42 194.91Q99.76 194.98 98.18 195.45Q96.59 195.92 95.26 197.04Q93.78 198.23 92.63 200.77Q91.47 203.31 90.77 206.48Q90.07 209.65 89.85 213.22Q89.78 214.48 89.78 215.67Q89.78 217.91 90.03 219.96Q90.43 223.17 91.58 225.67Q92.73 228.18 94.64 229.30Q95.76 229.94 97.35 230.16Q98.46 230.30 99.65 230.27Q100.12 230.27 100.59 230.27Q102.25 230.20 103.89 229.93Q105.53 229.66 106.83 229.37Q106.68 229.73 106.65 230.18Q106.61 230.63 106.47 231.06Q106.32 231.57 106.25 232.11L109.78 233.80L104.19 237.48L108.99 238.74L108.38 240.07Q105.13 241.26 101.35 241.51Q100.37 241.59 99.40 241.59Q96.63 241.59 93.96 241.05Q90.39 240.32 87.40 238.54Q84.41 236.76 82.86 233.87Q81.31 231.06 80.50 227.71Q79.69 224.36 79.36 220.83Q79.11 218.16 79.11 215.49Q79.07 214.63 79.11 213.73ZM114.90 196.14L115.15 194.77Q119.22 193.43 123.31 192.73Q127.41 192.03 131.23 191.99Q131.44 191.99 131.62 191.99Q135.23 191.99 138.36 192.61Q141.64 193.25 144.06 194.84Q146.25 196.25 147.57 198.37Q148.89 200.50 149.14 203.17Q149.21 203.81 149.21 204.54Q149.21 206.59 148.60 208.90Q147.80 211.96 145.86 215.13Q145.50 215.78 144.74 216.75Q143.98 217.73 143.10 218.83Q142.22 219.93 141.19 220.99Q140.16 222.05 139.19 222.88Q140.09 225.01 141.12 227.37Q142.15 229.73 143.14 231.91Q144.13 234.09 145.03 235.91Q145.93 237.73 146.43 238.74L145.93 239.28L141.64 236.90L141.43 240.58L139.95 239.93L138.61 240.83L129.68 227.03L125.03 228.86L124.67 239.93L123.48 239.78L121.03 235.93L119.12 240.90L117.78 240.36Q117.71 238.16 117.53 234.05Q117.35 229.94 117.21 225.12Q117.06 220.29 117.06 215.31Q117.06 210.34 117.35 206.27L117.57 203.38L115.22 201.69L119.12 198.16L114.90 196.14M125.53 219.35Q128.20 218.30 131.01 216.54Q133.82 214.77 135.87 212.66Q137.93 210.55 138.87 208.28Q139.30 207.27 139.30 206.27Q139.30 205.08 138.69 203.92Q138.04 202.73 135.91 202.41Q134.18 202.12 132.34 202.12Q131.95 202.12 131.51 202.12Q128.85 202.27 125.68 202.81L125.53 219.35ZM153.07 197.80L154.08 195.42L153.57 194.44L174.69 193.04L175.34 195.92L170.76 199.09L175.12 200.43L174.55 202.05L163.77 203.02L163.52 214.37L174.29 214.01L173.07 217.87L175.20 218.74L174.84 220.72L163.66 221.84L164.13 233.87L175.27 233.44L174.55 237.26L176.53 238.16L175.70 240.97L158.29 241.98L158.58 238.23L154.08 238.52L154.54 204.00L153.64 202.52L156.81 199.78L153.07 197.80ZM178.94 239.57L188.46 194.01L191.41 194.91L194.12 192.53L198.19 197.54L200.50 193.04L203.06 194.59L205.43 193.22L214.05 239.86L212.43 238.74L209.72 240.29L207.63 237.62L205.65 239.64L202.91 229.66L189.18 230.77L186.55 240.83L185.79 241.12L183.45 238.16L180.49 240.50L178.94 239.57M191.02 222.38L201.58 221.40L197.90 204.86L194.80 205.08L191.02 222.38ZM217.44 241.41L219.71 193.29L222.01 192.32L224.82 198.73L227.92 193.58L229.47 195.13L230.77 194.01L237.44 214.77L238.63 214.77L245.19 193.80L247.31 195.42L250.20 193.15L252.72 196.75L255.96 193.80L258.16 239.86L256.76 240.22L254.41 236.25L252.94 239.93L251.60 238.74L249.76 239.50L248.14 216.97L246.81 216.61L239.06 237.41L237.73 236.25L236.32 236.83L228.72 217.33L227.53 217.19L225.98 240.07L223.71 240.72L220.90 236.25L218.70 241.77L217.44 241.41Z" fill="#ffffff" style="fill: rgb(255, 255, 255);"></path></g><g id="SvgjsG1362" rel="mainfill" name="symbol" xmlns:name="symbol_mainfill" transform="translate(62.31500244140625,-17.798280143737795) scale(1.3)" fill="#ffffff"><g fill="#ffffff"><path d="M92.7,61.2c1.3-2.6,2-5.5,2-8.4c0-10.1-8.2-18.4-18.4-18.4c-1.4,0-2.8,0.2-4.2,0.5l5.8-16   c0.3-0.9-0.1-1.9-1.1-2.3l-7.6-2.8c-0.4-0.2-0.9-0.1-1.3,0.1c-0.4,0.2-0.8,0.6-0.9,1L66.4,17c0,0,0,0,0,0l-2.9,7.9   c0,0.1,0,0.1-0.1,0.2L60.6,33c-3.1-1.9-6.8-3.1-10.7-3.1c-6.3,0-12.2,2.9-16.1,7.7c-3-2.1-6.5-3.3-10.4-3.3   C13.2,34.4,5,42.6,5,52.8C5,56,5.9,59.2,7.5,62c-0.9,1-1.4,2.4-1.4,3.8c0,2.9,2.2,5.3,5,5.6l3.3,10.1c0.9,2.8,3.5,4.7,6.5,4.7h58.4   c3,0,5.6-1.9,6.5-4.7L89,71.4h0.3c3.1,0,5.7-2.6,5.7-5.7C95,63.9,94.1,62.2,92.7,61.2z M68.2,22.4l2.6,6l-1.2,3.2l-2.6-6L68.2,22.4   z M72.5,23.6L70,17.9l4.1,1.5L72.5,23.6z M65.3,30.4l2.6,6.1c-0.7,0.4-1.4,0.8-2,1.2c-0.7-0.9-1.5-1.7-2.4-2.5L65.3,30.4z    M49.8,33.4c9.4,0,17.1,7.6,17.1,17.1c0,3-0.8,5.9-2.3,8.5h-0.1c-1,0-1.8,0.8-1.8,1.8s0.8,1.8,1.8,1.8c1.5,0,2.7,1.2,2.7,2.7   c0,1.5-1.2,2.7-2.7,2.7H41.6c0.3-0.7,0.4-1.4,0.4-2.2c0-1.9-0.9-3.6-2.3-4.6c1.3-2.6,2-5.5,2-8.4c0-5-2-9.5-5.2-12.8   C39.7,35.8,44.6,33.4,49.8,33.4z M9.6,65.8c0-0.8,0.4-1.5,1.1-1.9c0.4-0.2,0.7-0.6,0.8-1.1c0.1-0.5,0-0.9-0.2-1.3l-0.4-0.6   c-1.6-2.4-2.4-5.2-2.4-8.1c0-8.2,6.7-14.8,14.8-14.8s14.8,6.7,14.8,14.8c0,2.6-0.7,5.1-1.9,7.3c-1,0-1.7,0.8-1.7,1.8   c0,1,0.8,1.8,1.8,1.8c1.2,0,2.2,1,2.2,2.2c0,1.2-1,2.2-2.2,2.2h-2.6c0,0,0,0,0,0h-8.5c-1,0-1.8,0.8-1.8,1.8v3.6   c0,0.7-0.6,1.3-1.3,1.3c-0.7,0-1.3-0.6-1.3-1.3v-3.6c0-1-0.8-1.8-1.8-1.8h-7.3C10.6,67.9,9.6,67,9.6,65.8z M82.3,80.4   c-0.4,1.4-1.7,2.3-3.1,2.3H20.8c-1.4,0-2.7-0.9-3.1-2.3l-2.9-9h2.6v1.8c0,2.7,2.2,4.9,4.9,4.9S27,76,27,73.3v-1.8h9.3c0,0,0,0,0,0   H64c0,0,0,0,0,0h21.3L82.3,80.4z M89.3,67.9H70.1c0.4-0.8,0.6-1.7,0.6-2.7c0-2.1-1.1-4-2.7-5.1c1.6-3,2.4-6.2,2.4-9.6   c0-3.6-0.9-7-2.5-9.9c2.5-1.7,5.4-2.7,8.5-2.7c8.2,0,14.8,6.7,14.8,14.8c0,2.6-0.7,5.1-1.9,7.3c-1,0-1.7,0.8-1.7,1.8   c0,1,0.8,1.8,1.8,1.8c1.2,0,2.2,1,2.2,2.2C91.5,67,90.5,67.9,89.3,67.9z" fill="#ffffff" style="fill: rgb(255, 255, 255);"></path><path d="M76.7,40.4c-0.1,0-0.2,0-0.3,0c-1,0-1.8,0.8-1.8,1.8s0.8,1.8,1.8,1.8l0.2,0c0,0,0,0,0.1,0   c0.9,0,1.7-0.8,1.8-1.7C78.4,41.3,77.7,40.5,76.7,40.4z" fill="#ffffff" style="fill: rgb(255, 255, 255);"></path><path d="M88.7,52.8c0-4.3-2.3-8.4-6-10.6c-0.8-0.5-1.9-0.2-2.4,0.6c-0.5,0.8-0.2,1.9,0.6,2.4   c2.7,1.6,4.3,4.5,4.3,7.6c0,1,0.8,1.8,1.8,1.8C87.9,54.5,88.7,53.7,88.7,52.8z" fill="#ffffff" style="fill: rgb(255, 255, 255);"></path></g></g></svg>
